<svg xmlns="http://www.w3.org/2000/svg" width="196.957" height="200.908" viewBox="0 0 196.957 200.908">
  <g id="Group_410" data-name="Group 410" transform="translate(-145.384 -26.281)">
    <g id="Group_253" data-name="Group 253">
      <g id="Group_190" data-name="Group 190">
        <path id="Path_256" data-name="Path 256" d="M341.72,154.254a1.209,1.209,0,0,0-1.5.262,84.751,84.751,0,0,1-8.9,8.8A83.681,83.681,0,1,1,222.8,35.9a84.74,84.74,0,0,1,10.1-7.386,1.208,1.208,0,0,0-.805-2.222,100.682,100.682,0,0,0,5.933,200.069q4.116.329,8.2.328a100.722,100.722,0,0,0,96.056-71.025A1.209,1.209,0,0,0,341.72,154.254Zm-32.165,38.811c-.278-4.384-.083-9.273,1.22-10.4a.632.632,0,0,1,.444-.174,1.153,1.153,0,0,1,.3.045,1.007,1.007,0,0,1,.735.645C313,184.991,311.341,189.43,309.555,193.065Zm10.017-12.134a.858.858,0,0,1,.32-.075.476.476,0,0,1,.245.068c.037.021.094.054.126.237.417,2.367-4.663,9.752-9.386,15.752C313.221,190.456,317.009,181.988,319.572,180.931Zm-11.835,18.984c-.208.653-.368,1.186-.468,1.545a.537.537,0,0,0-.011.058,11.183,11.183,0,0,1-1.247,2.349c-.358.276-.721.544-1.082.814.823-3.315,1.671-8.363-.057-10.577a3.445,3.445,0,0,0-5.525.419,3.648,3.648,0,0,0-.324.809c-1.735-3.515-3.861-6.624-6.2-7.48a3.893,3.893,0,0,0-3.674.511,4.107,4.107,0,0,0-1.4,1.6,10.869,10.869,0,0,0,.543-4.086,13.676,13.676,0,0,0,7.655,1.152c3.186-.192,5.937-.356,9.2,3.679C307.988,194.219,308.258,197.457,307.737,199.915ZM249.67,222.934c.64-3.553,1.857-7.7,3.469-8.541a1.013,1.013,0,0,1,.479-.125,1.484,1.484,0,0,1,.719.217,1.152,1.152,0,0,1,.716.965C255.2,217.26,252.338,220.5,249.67,222.934Zm-4.217-18.205a1.884,1.884,0,0,1,1.652-.855h.073a1.867,1.867,0,0,1,1.617.778c2.143,2.878.28,11.971-1.262,17.592C245.732,216.7,243.446,207.7,245.453,204.729Zm5.884,19.4c2.5-2.323,5.953-6.06,5.723-8.849a3.444,3.444,0,0,0-4.849-2.679,3.652,3.652,0,0,0-.716.5c.478-3.89.4-7.656-1.085-9.656a4.13,4.13,0,0,0-6.626.154c-1.395,2.067-1.292,5.833-.634,9.7a3.673,3.673,0,0,0-.737-.464,3.444,3.444,0,0,0-4.72,2.9c-.1,2.766,3.44,6.29,6.043,8.5q-.8-.021-1.607-.055c-2.274-.872-7.048-3.6-6.651-11.03.274-5.111,2.9-8.568,5.69-12.229a34.22,34.22,0,0,0,5.648-9.44,34.223,34.223,0,0,0,6.082,9.167c2.6,3.107,5.074,6.064,5.976,10.207.056.479.14.967.241,1.461.011.1.027.186.037.282.778,7.755-4.405,10.633-6.461,11.461C252.24,224.09,251.788,224.111,251.337,224.134Zm-5.906-1.1c-2.778-2.306-5.791-5.408-5.726-7.226a1.152,1.152,0,0,1,.671-1,1.431,1.431,0,0,1,.753-.251,1.015,1.015,0,0,1,.439.1C243.218,215.424,244.627,219.514,245.431,223.035ZM191.5,206.07c-.966-3.479-1.669-7.746-.579-9.2a1.1,1.1,0,0,1,.988-.442c.043,0,.087,0,.133,0a1.152,1.152,0,0,1,1.063.56C194.027,198.557,192.851,202.72,191.5,206.07Zm11.035-2.712a1.661,1.661,0,0,1,.226.015,1.447,1.447,0,0,1,.968,1.96c-.91,1.572-5.112,2.6-8.691,3.074C197.49,205.956,200.691,203.358,202.537,203.358Zm-8.857,3.262c1.684-5.581,4.941-14.272,8.287-15.569a1.931,1.931,0,0,1,.707-.141,2.04,2.04,0,0,1,1.137.381,1.884,1.884,0,0,1,.944,1.6C204.873,196.48,198.153,202.883,193.68,206.62Zm1.912,3.742c3.384-.468,8.461-1.567,9.881-4.019a3.445,3.445,0,0,0-2.453-4.968,3.721,3.721,0,0,0-.87,0c2.611-2.921,4.7-6.054,4.618-8.546a4.131,4.131,0,0,0-5.53-3.655c-2.324.9-4.389,4.053-6.054,7.6a3.729,3.729,0,0,0-.34-.8,3.445,3.445,0,0,0-5.532-.31c-1.712,2.284-.706,7.442.194,10.736-.306-.216-.61-.435-.914-.654a10.252,10.252,0,0,1-.645-11.979q.588-.486,1.176-1.068h0a17.112,17.112,0,0,0,2.426-3.028c2.682-2.12,5.808-3.133,9.07-4.188a34.263,34.263,0,0,0,10.026-4.53,34.26,34.26,0,0,0-.238,11c.343,3.807.664,7.44-.663,11.126a17.3,17.3,0,0,0-1.016,2.246l-.005.01c-3.9,7.021-10.048,6.174-12.034,5.68Q196.139,210.69,195.592,210.362Zm-47.456-91.741a11.726,11.726,0,0,0,5.836,4.967,11.752,11.752,0,0,0-6.086,4.864Q147.768,123.532,148.136,118.621Zm52.12-79.557c2.383-.431,6.8-.7,8.179,1.573,1.305,2.148-.209,6.323-1.474,8.927A85.009,85.009,0,0,0,195.249,72.7a13.864,13.864,0,0,1,.473-5.209c.749-3.35,1.522-6.815-2.633-11.454-.269-.3-.54-.578-.811-.844a30.208,30.208,0,0,0,5.1.521,7,7,0,0,0,4.347-1.061,2.7,2.7,0,0,0,.958-2.472,3.013,3.013,0,0,0-1.472-2.333,4.642,4.642,0,0,0-1.515-.553c2.642-1.026,4.743-2.213,5.561-3.544a2.577,2.577,0,0,0,.268-2.314,2.259,2.259,0,0,0-1.44-1.362c-3.562-1.237-13.92,4.175-19.778,7.511A98.482,98.482,0,0,1,200.256,39.064Zm-6.58,35.73a10.855,10.855,0,0,0-4.088-.119,4.12,4.12,0,0,0,1.772-1.122,3.893,3.893,0,0,0,1.089-3.546c-.472-2.448-3.2-5.043-6.4-7.314a3.679,3.679,0,0,0,.851-.191,3.444,3.444,0,0,0,1.293-5.388c-1.909-2.058-7.025-2.025-10.429-1.74.33-.319.657-.638.992-.953a11.081,11.081,0,0,1,2.417-.84l.025,0a1.088,1.088,0,0,0,.114-.006c.393-.044.989-.124,1.726-.235a9.6,9.6,0,0,1,3.023.367.992.992,0,0,0,.122.047l.359.1a12.082,12.082,0,0,1,5.045,3.521c3.464,3.868,2.864,6.558,2.168,9.672A13.671,13.671,0,0,0,193.676,74.794Zm-15.47-5.823a1.448,1.448,0,0,1-2.1.6c-1.385-1.176-1.643-5.493-1.472-9.1C176.688,63.442,178.757,67.24,178.206,68.971Zm-.644-11.561c3.6-.33,7.92-.26,9.158,1.074a1.448,1.448,0,0,1-.511,2.127C184.5,61.236,180.618,59.335,177.562,57.41Zm-.929,2.043c5.189,2.653,13.159,7.409,13.839,10.935A2.118,2.118,0,0,1,188.16,72.8C184.61,72.279,179.51,64.523,176.633,59.453Zm23.525-7.887a1.009,1.009,0,0,1,.52.828.711.711,0,0,1-.245.713c-1.326,1.105-6.183.521-10.467-.451C193.84,51.471,198.486,50.543,200.158,51.566Zm-13.781-.828c6.08-3.377,13.342-6.864,16.3-6.864a2.29,2.29,0,0,1,.741.1c.176.061.2.122.214.163a.575.575,0,0,1-.1.556C202.087,47.059,193.124,49.451,186.377,50.738Zm-13.771,10.01c-.137,3.414.05,8.539,2.193,10.36a3.03,3.03,0,0,0,1.994.736,3.807,3.807,0,0,0,1.054-.156,3.142,3.142,0,0,0,2.278-2.107,3.7,3.7,0,0,0,.155-.858c2.408,3.092,5.119,5.708,7.586,6.072a4.144,4.144,0,0,0,.614.046c.086,0,.171-.007.256-.013a30.8,30.8,0,0,0-3.131.887c-3.423,1.106-6.379,2.062-10.391-1.228-6.094-5-4.35-10.769-3.488-12.747C172.015,61.407,172.312,61.079,172.606,60.748Zm-1.741,11.967a11.725,11.725,0,0,0-7.7.524,97.414,97.414,0,0,1,5.705-8.041A11.728,11.728,0,0,0,170.865,72.715ZM160.489,80.27c3.352-1.343,7.517-2.512,9.08-1.589a1.445,1.445,0,0,1,.119,2.183C168.233,81.951,163.967,81.24,160.489,80.27Zm3.92,10.894a1.447,1.447,0,0,1-1.842,1.179c-1.663-.732-3.145-4.8-4.012-8.3C161.374,86.3,164.442,89.348,164.409,91.164Zm-4.228-8.67c5.732,1.059,14.729,3.339,16.387,6.521a2.118,2.118,0,0,1-1.524,2.975C171.5,92.493,164.388,86.529,160.181,82.494Zm-3.436,2.6c.859,3.3,2.489,7.986,5.011,9.1a3.086,3.086,0,0,0,1.24.266,3.39,3.39,0,0,0,1.846-.582,3.144,3.144,0,0,0,1.581-2.67,3.7,3.7,0,0,0-.1-.869c2.911,2.074,5.949,3.7,8.334,3.7a4.59,4.59,0,0,0,.671-.047,4.13,4.13,0,0,0,3.024-5.9c-1.152-2.211-4.509-3.915-8.217-5.178a3.726,3.726,0,0,0,.756-.429,3.444,3.444,0,0,0-.3-5.532c-2.391-1.411-7.2.033-10.379,1.27q.366-.659.742-1.31c1.778-1.56,6.505-4.639,12.966-.674,4.362,2.677,6.147,6.638,8.036,10.832a34.254,34.254,0,0,0,5.607,9.466,34.288,34.288,0,0,0-10.958.975c-3.923.8-7.657,1.551-11.67.431-.434-.167-.885-.316-1.351-.452-.155-.06-.31-.114-.466-.179-6.789-2.846-7.218-8.294-7.033-10.746C156.3,86.067,156.523,85.578,156.745,85.09Zm1.67,11.737a11.71,11.71,0,0,0-6.946,2.72q1.272-4.575,2.989-9.032A11.7,11.7,0,0,0,158.415,96.827Zm4.244,2.481c.087.023.168.051.253.075q.7.265,1.384.462c3.969,1.545,6.5,4.465,9.166,7.539a34.257,34.257,0,0,0,8.083,7.463,34.238,34.238,0,0,0-10.219,4.073c-4.057,2.168-7.885,4.217-12.978,3.672-7.242-.773-9.248-5.769-9.8-8.2q.1-.825.209-1.649c1.771,2.916,4.664,6.912,7.389,7.252a3.444,3.444,0,0,0,3.616-4.2,3.667,3.667,0,0,0-.341-.8,22.8,22.8,0,0,0,6.936,1.427,6.544,6.544,0,0,0,2.737-.509,4.132,4.132,0,0,0,1.208-6.518c-1.738-1.788-5.443-2.46-9.358-2.608a3.626,3.626,0,0,0,.6-.626,3.444,3.444,0,0,0-1.873-5.214c-2.694-.664-6.885,2.094-9.579,4.19.1-.484.21-.967.322-1.449C151.664,101.692,155.312,97.353,162.659,99.308Zm-2.727,5.651c-1.083,1.458-5.375,2-8.986,2.065,2.592-2.061,5.88-4.177,7.77-4.177a1.944,1.944,0,0,1,.476.054,1.447,1.447,0,0,1,.74,2.058Zm-2.444,12.534a1.155,1.155,0,0,1-1.091.5c-1.8-.224-4.387-3.693-6.222-6.8,3.348,1.355,7.16,3.4,7.649,5.146A1.152,1.152,0,0,1,157.488,117.493Zm-6.2-8.25c5.794-.628,15.067-1.022,17.569,1.554a2.118,2.118,0,0,1-.609,3.287C164.993,115.592,156.475,111.9,151.289,109.243Zm-1.6,26.186c2.1-2.942,4.966-6.177,6.781-6.246h.056a1.169,1.169,0,0,1,.989.595,1.157,1.157,0,0,1,.236,1.179C157.114,132.657,153.141,134.366,149.689,135.429Zm9.185,8.248a1.152,1.152,0,0,1-.91.785c-1.787.28-5.237-2.334-7.863-4.814,3.591.373,7.82,1.279,8.776,2.826A1.154,1.154,0,0,1,158.874,143.677Zm9.071-9.583a2.12,2.12,0,0,1,.326,3.327c-2.712,2.352-11.919,1.166-17.639.045C156.026,135.258,164.826,132.312,167.945,134.094Zm-18.894,7.327c2.346,2.176,5.975,5.071,8.69,5.071a3.385,3.385,0,0,0,.537-.041,3.444,3.444,0,0,0,2.312-5.034,3.619,3.619,0,0,0-.55-.677c.614.03,1.225.046,1.825.046,3.221,0,6.136-.466,7.724-1.843a4.13,4.13,0,0,0-.645-6.6c-2.165-1.238-5.912-.856-9.717.086a3.646,3.646,0,0,0,.409-.77,3.444,3.444,0,0,0-3.244-4.491c-2.851.109-6.221,4.136-8.212,6.91-.029-.358-.055-.716-.08-1.074.365-1.685,2.3-8.062,10.706-8.236,5.106-.093,8.761,2.261,12.617,4.768a34.249,34.249,0,0,0,9.834,4.932,34.281,34.281,0,0,0-8.692,6.745c-2.7,2.624-5.277,5.127-8.886,6.437a17.084,17.084,0,0,0-2.38.647c-.063.012-.123.027-.188.038-7.418,1.3-10.706-3.279-11.8-5.383C149.22,142.444,149.132,141.933,149.051,141.421Zm8.03,9.08a11.717,11.717,0,0,0-4.316,6.3,98.094,98.094,0,0,1-2.6-9.479A11.724,11.724,0,0,0,157.081,150.5Zm4.73-.251.01,0a17.339,17.339,0,0,0,2.379-.646c3.851-.724,7.385.171,11.09,1.116a34.268,34.268,0,0,0,10.9,1.515,34.266,34.266,0,0,0-6.068,9.177c-1.561,3.053-3.059,5.978-5.578,8.288a17.127,17.127,0,0,0-3.376,1.914c-.443.323-.844.652-1.225.985a10.245,10.245,0,0,1-11.667-2.457c-.18-.357-.363-.712-.538-1.07,2.345,1.063,5.71,2.346,8.3,2.346a4.8,4.8,0,0,0,2.229-.462,3.444,3.444,0,0,0,.574-5.51,3.691,3.691,0,0,0-.738-.464c3.768-1.079,7.207-2.616,8.467-4.767a4.129,4.129,0,0,0-2.728-6.041c-2.448-.476-5.875,1.088-9.175,3.2a3.724,3.724,0,0,0,.14-.862,3.444,3.444,0,0,0-4.514-3.213c-2.632,1.006-4.517,5.794-5.523,9.058-.17-.429-.331-.861-.5-1.293C154.128,158.871,154.452,152.915,161.811,150.25ZM156.6,163.27c1.04-3.458,2.721-7.443,4.418-8.091a1.038,1.038,0,0,1,.38-.076,1.377,1.377,0,0,1,.8.3,1.151,1.151,0,0,1,.6,1.04C162.738,158.262,159.523,161.155,156.6,163.27Zm11.346,4.864a1.153,1.153,0,0,1-.609,1.036c-1.61.843-5.71-.529-8.992-2.036,3.522-.8,7.818-1.3,9.218-.139A1.152,1.152,0,0,1,167.942,168.134Zm-9.8-3.237c4.151-3.606,10.964-8.807,14.68-8.807a3.3,3.3,0,0,1,.634.057,2.118,2.118,0,0,1,1.376,3.047C173.02,162.29,163.921,164.123,158.143,164.9Zm7.635,10.574a12.022,12.022,0,0,0,1.711-.128,11.715,11.715,0,0,0-2.006,6.885q-2.753-3.939-5.069-8.066A11.772,11.772,0,0,0,165.778,175.471Zm5.245-1.148c.492-.211.991-.446,1.5-.726a17.086,17.086,0,0,0,3.1-2.17c3.144-1.267,6.407-1.373,9.81-1.481a34.238,34.238,0,0,0,10.889-1.568,34.239,34.239,0,0,0-3.282,10.5c-.648,3.343-1.272,6.547-3.024,9.45a17.116,17.116,0,0,0-2.634,2.71c-.358.46-.67.916-.956,1.367a10.242,10.242,0,0,1-11.907.95c-.278-.3-.55-.6-.825-.9a34.479,34.479,0,0,0,4.8.384c2.351,0,4.618-.356,5.813-1.5a3.444,3.444,0,0,0-.979-5.453,3.656,3.656,0,0,0-.837-.242c3.32-2.081,6.2-4.512,6.81-6.929a4.129,4.129,0,0,0-4.3-5.046c-2.484.22-5.342,2.674-7.926,5.621a3.679,3.679,0,0,0-.105-.865,3.444,3.444,0,0,0-5.228-1.834c-2.262,1.707-2.737,6.878-2.792,10.293-.254-.321-.511-.641-.76-.964A10.24,10.24,0,0,1,171.023,174.323Zm-.069,12.874c.038-3.611.546-7.9,2-9a1,1,0,0,1,.633-.217,1.7,1.7,0,0,1,.564.108,1.155,1.155,0,0,1,.867.833C175.465,180.68,173.179,184.352,170.954,187.2Zm11.567.534a1.448,1.448,0,0,1,.386,2.153c-1.311,1.257-5.633,1.075-9.2.54C176.865,188.68,180.854,187.007,182.521,187.731Zm-9.628.6c3.167-4.893,8.709-12.339,12.283-12.657.069-.006.137-.009.2-.009a2.135,2.135,0,0,1,1.965,2.554C186.461,181.7,178.228,185.981,172.893,188.329Zm7.057,8.494a11.642,11.642,0,0,0,4.9-1.087,11.718,11.718,0,0,0,.055,7.207q-3.725-2.974-7.18-6.327A12.3,12.3,0,0,0,179.95,196.823Zm27.778,13.134a11.733,11.733,0,0,0,2.1,7.428,97.023,97.023,0,0,1-9.1-4.156A11.737,11.737,0,0,0,207.728,209.957Zm2.772-3.632c.02-.06.045-.115.066-.175a17.142,17.142,0,0,0,1.021-2.254c1.868-3.353,4.748-5.5,7.768-7.746a34.251,34.251,0,0,0,8.041-7.507,34.231,34.231,0,0,0,3.305,10.494c1.861,4.206,3.618,8.179,2.7,13.214-1.585,8.68-8.782,9.238-10.051,9.269-.3-.072-.606-.147-.909-.221,3.056-1.518,7.639-4.225,8.205-7.047a3.444,3.444,0,0,0-3.917-3.916,3.678,3.678,0,0,0-.826.28c1.536-3.605,2.509-7.244,1.632-9.579a4.13,4.13,0,0,0-6.41-1.686c-1.912,1.6-2.857,5.246-3.294,9.141a3.727,3.727,0,0,0-.58-.651,3.444,3.444,0,0,0-5.339,1.482c-.876,2.675,1.648,7.148,3.549,9.986-.455-.148-.911-.3-1.364-.452C212.268,217.663,207.944,213.689,210.5,206.325Zm6.827,12.252c-2.031-2.986-4.067-6.8-3.5-8.528a1.151,1.151,0,0,1,.92-.773,1.819,1.819,0,0,1,.486-.074,1.007,1.007,0,0,1,.7.262C217.307,210.652,217.529,214.971,217.327,218.577Zm5.09-17.582a1.8,1.8,0,0,1,1.2-.453,2.443,2.443,0,0,1,.628.089,1.882,1.882,0,0,1,1.409,1.214c1.262,3.359-3.046,11.58-6.084,16.555C219.369,212.574,219.665,203.3,222.417,200.995Zm4.709,11.414a1.161,1.161,0,0,1,.23-.024,1.255,1.255,0,0,1,.9.444,1.155,1.155,0,0,1,.42,1.127c-.357,1.781-4.008,4.1-7.246,5.7C223.024,216.419,225.342,212.768,227.126,212.409Zm6.673,4.9a11.733,11.733,0,0,0,4.035,6.6q-5.013-.422-9.9-1.332A11.761,11.761,0,0,0,233.8,217.311Zm27.128-.131a11.715,11.715,0,0,0,5.692,4.955q-4.725,1-9.559,1.538A11.717,11.717,0,0,0,260.927,217.18Zm17.551-8.585a1.023,1.023,0,0,1,.765-.3,1.9,1.9,0,0,1,.41.048,1.153,1.153,0,0,1,.963.72c.662,1.691-1.155,5.617-3.014,8.713C277.2,214.186,277.172,209.861,278.478,208.6Zm-3.121,9.128c-3.314-4.794-8.081-12.758-7.01-16.185a1.883,1.883,0,0,1,1.338-1.293,2.364,2.364,0,0,1,.731-.127,1.811,1.811,0,0,1,1.111.387C274.4,202.649,275.223,211.9,275.357,217.723Zm-1.787,1.359c-3.323-1.413-7.1-3.522-7.556-5.283a1.151,1.151,0,0,1,.356-1.148,1.22,1.22,0,0,1,.926-.5,1.18,1.18,0,0,1,.174.014C269.269,212.424,271.79,215.939,273.57,219.082Zm5.978-.648c1.733-2.943,3.961-7.505,2.943-10.107a3.444,3.444,0,0,0-5.414-1.178,3.689,3.689,0,0,0-.542.682c-.657-3.864-1.806-7.451-3.8-8.94a4.131,4.131,0,0,0-6.305,2.046c-.744,2.38.433,5.958,2.17,9.471a3.667,3.667,0,0,0-.84-.234,3.445,3.445,0,0,0-3.69,4.133c.7,2.691,5.14,5.064,8.269,6.432q-.74.2-1.483.4c-2.368-.154-7.872-1.318-9.649-8.671-.039-.162-.068-.322-.1-.483-.061-.484-.137-.956-.233-1.413-.466-4.14.874-7.7,2.283-11.45a34.272,34.272,0,0,0,2.707-10.664,34.247,34.247,0,0,0,8.453,7.042c3.84,2.533,7.466,4.925,9.415,9.658,2.947,7.158-1.118,11.39-2.871,12.8C280.421,218.121,279.984,218.276,279.548,218.434Zm7.164-9.7a11.728,11.728,0,0,0,7.144,3.165,97.373,97.373,0,0,1-8.922,4.4A11.728,11.728,0,0,0,286.712,208.732Zm-1.057-4.578c-2.61-4.484-1.2-7.25.441-10.453a30.383,30.383,0,0,0,1.374-2.953,4.1,4.1,0,0,0-.106.868c-.033,2.493,2.117,5.585,4.786,8.454a3.657,3.657,0,0,0-.871.017,3.445,3.445,0,0,0-2.355,5.015c1.46,2.409,6.5,3.409,9.9,3.816-.368.235-.736.471-1.107.7C295.646,210.156,289.635,211,285.655,204.154Zm15.448-8.646a1.155,1.155,0,0,1,1.053-.58c.061,0,.119-.007.174-.007a1.087,1.087,0,0,1,.954.421c1.118,1.432.5,5.713-.4,9.212C301.472,201.232,300.213,197.094,301.1,195.508ZM299.4,206.96c-3.589-.406-7.81-1.348-8.751-2.9a1.446,1.446,0,0,1,.93-1.979,1.749,1.749,0,0,1,.265-.019C293.693,202.06,296.916,204.575,299.4,206.96Zm1.324-1.813c-4.546-3.646-11.391-9.915-11.344-13.505a1.888,1.888,0,0,1,.912-1.622,2.03,2.03,0,0,1,1.163-.4,1.977,1.977,0,0,1,.677.127C295.5,190.975,298.928,199.6,300.721,205.147Zm-14.529-19.912c.454,2.954-.686,5.195-1.89,7.55a15.029,15.029,0,0,0-2.089,6.361,35.8,35.8,0,0,0-6.793-5.331c-3.448-2.274-7.006-4.629-9.522-8.836q2.133.277,4.293.45A87.062,87.062,0,0,0,286.192,185.235Zm-74.675-29.8a85.46,85.46,0,0,0,52.261,29.245,1,1,0,0,0-.045.427c.606,5.141-.956,9.291-2.466,13.3a40.189,40.189,0,0,0-2.217,7.279,39.212,39.212,0,0,0-4.608-6.332c-2.753-3.287-5.6-6.686-6.728-11.738a1.007,1.007,0,0,0-1.975.046c-.891,5.1-3.576,8.627-6.173,12.039a39.76,39.76,0,0,0-4.255,6.432,37.154,37.154,0,0,0-2.769-7.813c-1.735-3.921-3.529-7.976-3.214-13.143a1.006,1.006,0,0,0-1.909-.5c-2.27,4.653-5.827,7.3-9.267,9.859a42.421,42.421,0,0,0-5.524,4.626,41.4,41.4,0,0,0-.215-7.393c-.384-4.27-.781-8.686,1.175-13.479a1.007,1.007,0,0,0-1.647-1.089c-3.643,3.679-7.861,5.044-11.941,6.364a42.155,42.155,0,0,0-6.737,2.619,42.816,42.816,0,0,0,1.751-6.922c.816-4.209,1.66-8.561,4.869-12.623a1.006,1.006,0,0,0-1.28-1.5c-4.52,2.523-8.952,2.663-13.237,2.8a42.7,42.7,0,0,0-7.112.627,42.2,42.2,0,0,0,3.658-6.235c1.952-3.817,3.971-7.765,8.183-10.775a1.007,1.007,0,0,0-.813-1.8c-5.043,1.168-9.34.074-13.495-.985a41.244,41.244,0,0,0-7.265-1.388,42.4,42.4,0,0,0,5.447-4.718c3.074-2.989,6.253-6.08,11.208-7.58a1.007,1.007,0,0,0-.192-1.965c-5.152-.512-8.869-2.927-12.464-5.264a37.187,37.187,0,0,0-7.268-3.978,39.7,39.7,0,0,0,7.021-3.177c3.782-2.02,7.693-4.11,12.869-4.179a1.007,1.007,0,0,0,.36-1.942c-4.809-1.917-7.711-5.269-10.519-8.509a39.126,39.126,0,0,0-5.516-5.557,40.266,40.266,0,0,0,7.538-1.031c4.2-.852,8.547-1.734,13.526-.317a1.009,1.009,0,0,0,.429.024A85.467,85.467,0,0,0,211.517,155.433Zm-20.277-62.7q-.173,2.16-.239,4.311c-3.753-3.155-5.511-7.042-7.208-10.807a35.833,35.833,0,0,0-4.18-7.554,9.389,9.389,0,0,0,1.174.073,17.572,17.572,0,0,0,5.437-1.125c2.516-.814,4.91-1.583,7.753-.665A87.028,87.028,0,0,0,191.24,92.733Zm30-58.673a87.165,87.165,0,0,0-10.456,10.562,7.323,7.323,0,0,0-.625-5.03c-1.131-1.863-3.276-2.57-5.392-2.763a97.68,97.68,0,0,1,22.158-7.216C224.965,31.017,223.064,32.5,221.237,34.06Zm90.446,165.084c4.225-5.252,11.217-14.618,10.564-18.332a2.267,2.267,0,0,0-1.116-1.639,2.576,2.576,0,0,0-2.327-.1c-1.444.6-2.951,2.481-4.385,4.927a4.617,4.617,0,0,0-.3-1.584,3.017,3.017,0,0,0-2.069-1.825,2.7,2.7,0,0,0-2.592.553c-1.728,1.5-2.093,5.59-2.037,9.238-.219-.311-.45-.622-.7-.936-3.92-4.841-7.465-4.628-10.889-4.422a13.864,13.864,0,0,1-5.222-.362,85.038,85.038,0,0,0,24.7-7.878c2.772-.835,7.139-1.668,9.055-.037,2.024,1.724,1.051,6.046.247,8.33A98.5,98.5,0,0,1,311.683,199.144Zm15.852-18.169c.145-2.12-.211-4.351-1.87-5.764a7.329,7.329,0,0,0-4.868-1.417,87.188,87.188,0,0,0,12.093-8.642q2.74-2.334,5.295-4.9A97.666,97.666,0,0,1,327.535,180.975Z" fill="#ffdd9a"/>
      </g>
      <g id="Group_191" data-name="Group 191">
        <path id="Path_257" data-name="Path 257" d="M212.226,40.45a27.564,27.564,0,0,1,7.434-7.11,65.464,65.464,0,0,0-9.735,2.855A3.9,3.9,0,0,1,212.226,40.45Z" fill="#ffdd9a"/>
      </g>
      <g id="Group_192" data-name="Group 192">
        <path id="Path_258" data-name="Path 258" d="M187.059,80.047a7.052,7.052,0,0,1-3.862,1.262s2.45.91,2.927,4.471a18.373,18.373,0,0,0,3.175,7.17c-.5-5.742,1.934-13.9,1.934-13.9C190.929,78.69,188.635,78.792,187.059,80.047Z" fill="#ffdd9a"/>
      </g>
      <g id="Group_193" data-name="Group 193">
        <path id="Path_259" data-name="Path 259" d="M181.067,156.033a1.342,1.342,0,1,0-1.892-.152A1.341,1.341,0,0,0,181.067,156.033Z" fill="#ffdd9a"/>
      </g>
      <g id="Group_194" data-name="Group 194">
        <path id="Path_260" data-name="Path 260" d="M175.381,136.214a1.342,1.342,0,1,0-1.893-.151A1.342,1.342,0,0,0,175.381,136.214Z" fill="#ffdd9a"/>
      </g>
      <g id="Group_195" data-name="Group 195">
        <path id="Path_261" data-name="Path 261" d="M175.5,114.76a1.342,1.342,0,1,0-1.893-.152A1.343,1.343,0,0,0,175.5,114.76Z" fill="#ffdd9a"/>
      </g>
      <g id="Group_196" data-name="Group 196">
        <path id="Path_262" data-name="Path 262" d="M182.468,94.275a1.342,1.342,0,1,0-1.892-.152A1.342,1.342,0,0,0,182.468,94.275Z" fill="#ffdd9a"/>
      </g>
      <g id="Group_197" data-name="Group 197">
        <path id="Path_263" data-name="Path 263" d="M174.534,80.819a1.342,1.342,0,1,0,1.892.151A1.341,1.341,0,0,0,174.534,80.819Z" fill="#ffdd9a"/>
      </g>
      <g id="Group_198" data-name="Group 198">
        <circle id="Ellipse_3" data-name="Ellipse 3" cx="1.342" cy="1.342" r="1.342" transform="matrix(0.735, -0.679, 0.679, 0.735, 179.084, 73.489)" fill="#ffdd9a"/>
      </g>
      <g id="Group_199" data-name="Group 199">
        <path id="Path_264" data-name="Path 264" d="M190.277,62.12a1.342,1.342,0,1,0,1.892.152A1.341,1.341,0,0,0,190.277,62.12Z" fill="#ffdd9a"/>
      </g>
      <g id="Group_200" data-name="Group 200">
        <path id="Path_265" data-name="Path 265" d="M168.826,96.369a1.342,1.342,0,1,0-1.892-.151A1.341,1.341,0,0,0,168.826,96.369Z" fill="#ffdd9a"/>
      </g>
      <g id="Group_201" data-name="Group 201">
        <path id="Path_266" data-name="Path 266" d="M167.538,154.325a1.342,1.342,0,1,0-1.892-.151A1.342,1.342,0,0,0,167.538,154.325Z" fill="#ffdd9a"/>
      </g>
      <g id="Group_202" data-name="Group 202">
        <path id="Path_267" data-name="Path 267" d="M165.319,144.784a1.342,1.342,0,1,0-1.893-.152A1.342,1.342,0,0,0,165.319,144.784Z" fill="#ffdd9a"/>
      </g>
      <g id="Group_203" data-name="Group 203">
        <path id="Path_268" data-name="Path 268" d="M161.483,127.7a1.342,1.342,0,1,0,1.892.151A1.343,1.343,0,0,0,161.483,127.7Z" fill="#ffdd9a"/>
      </g>
      <g id="Group_204" data-name="Group 204">
        <path id="Path_269" data-name="Path 269" d="M161.724,118.109a1.342,1.342,0,1,0,1.892.152A1.343,1.343,0,0,0,161.724,118.109Z" fill="#ffdd9a"/>
      </g>
      <g id="Group_205" data-name="Group 205">
        <path id="Path_270" data-name="Path 270" d="M165.861,105.517a1.342,1.342,0,1,0-1.893-.152A1.343,1.343,0,0,0,165.861,105.517Z" fill="#ffdd9a"/>
      </g>
      <g id="Group_206" data-name="Group 206">
        <path id="Path_271" data-name="Path 271" d="M171.569,165.514a1.342,1.342,0,1,0,1.892.151A1.341,1.341,0,0,0,171.569,165.514Z" fill="#ffdd9a"/>
      </g>
      <g id="Group_207" data-name="Group 207">
        <path id="Path_272" data-name="Path 272" d="M178.349,183.683s7.744-3.864,6.4-5.447S178.349,183.683,178.349,183.683Z" fill="#ffdd9a"/>
      </g>
      <g id="Group_208" data-name="Group 208">
        <circle id="Ellipse_4" data-name="Ellipse 4" cx="1.342" cy="1.342" r="1.342" transform="matrix(0.75, -0.662, 0.662, 0.75, 189.177, 172.728)" fill="#ffdd9a"/>
      </g>
      <g id="Group_209" data-name="Group 209">
        <path id="Path_273" data-name="Path 273" d="M178.9,175.334a1.342,1.342,0,1,0-1.892-.151A1.342,1.342,0,0,0,178.9,175.334Z" fill="#ffdd9a"/>
      </g>
      <g id="Group_210" data-name="Group 210">
        <path id="Path_274" data-name="Path 274" d="M186.678,184.471a1.342,1.342,0,1,0,1.892.152A1.343,1.343,0,0,0,186.678,184.471Z" fill="#ffdd9a"/>
      </g>
      <g id="Group_211" data-name="Group 211">
        <path id="Path_275" data-name="Path 275" d="M163.09,162.352c3.48-.055,10.279-2.319,9.433-4.244S163.09,162.352,163.09,162.352Z" fill="#ffdd9a"/>
      </g>
      <g id="Group_212" data-name="Group 212">
        <path id="Path_276" data-name="Path 276" d="M166.664,135.857c.128-2.49-10.038.791-10.038.791C159.521,137.356,166.536,138.346,166.664,135.857Z" fill="#ffdd9a"/>
      </g>
      <g id="Group_213" data-name="Group 213">
        <path id="Path_277" data-name="Path 277" d="M166.931,112c.443-1.964-9.735-1.7-9.735-1.7C160.88,112.246,166.488,113.965,166.931,112Z" fill="#ffdd9a"/>
      </g>
      <g id="Group_214" data-name="Group 214">
        <path id="Path_278" data-name="Path 278" d="M165.843,85.466s7.412,6.426,8.453,4.129S165.843,85.466,165.843,85.466Z" fill="#ffdd9a"/>
      </g>
      <g id="Group_215" data-name="Group 215">
        <path id="Path_279" data-name="Path 279" d="M188.131,70.229c1.737-1.479-6.847-6.6-6.847-6.6C182.984,66.238,186.393,71.709,188.131,70.229Z" fill="#ffdd9a"/>
      </g>
      <g id="Group_216" data-name="Group 216">
        <path id="Path_280" data-name="Path 280" d="M189.306,113.221c-.457-4.988-.442-11.437-.442-11.437a14.794,14.794,0,0,0-8.369.781c-3.433,1.249-5.556.412-5.556.412a38.025,38.025,0,0,1,7.706,6.837A8.3,8.3,0,0,0,189.306,113.221Zm-2.067-5.708-.169,1.45-1.449-.169-1.144.907-.906-1.144-1.45-.169.168-1.449-.906-1.144,1.144-.906.168-1.45,1.45.168,1.144-.906.906,1.144,1.45.168-.169,1.45.907,1.144Z" fill="#ffdd9a"/>
      </g>
      <g id="Group_217" data-name="Group 217">
        <path id="Path_281" data-name="Path 281" d="M186.5,104.919l-.849-.1-.531-.67-.67.531-.849-.1-.1.849-.67.531.531.67-.1.849.849.1.531.67.67-.531.849.1.1-.849.67-.531-.531-.67Z" fill="#ffdd9a"/>
      </g>
      <g id="Group_218" data-name="Group 218">
        <path id="Path_282" data-name="Path 282" d="M187.8,126.142l-.189-.984.562-.829-.829-.562-.189-.984-.984.189-.829-.562-.562.829-.984.189.189.984-.562.829.829.562.189.984.984-.189.829.562.562-.829Z" fill="#ffdd9a"/>
      </g>
      <g id="Group_219" data-name="Group 219">
        <path id="Path_283" data-name="Path 283" d="M192.809,129.722c-1.465-4.7-3.048-11.554-3.048-11.554s-7.481.156-10.965,2.737a21.114,21.114,0,0,1-7.256,3.393,60.743,60.743,0,0,1,9.984,5.25C185.719,132.455,192.809,129.722,192.809,129.722Zm-9.328-1.521-.322-1.68-1.415-.959.96-1.415-.322-1.68,1.679-.321.96-1.415,1.415.96,1.679-.322.322,1.679,1.415.96-.96,1.415.322,1.679-1.679.322-.96,1.415-1.415-.96Z" fill="#ffdd9a"/>
      </g>
      <g id="Group_220" data-name="Group 220">
        <path id="Path_284" data-name="Path 284" d="M188.284,142.567l.934.362.4.916.916-.4.934.362.362-.934.916-.4-.4-.916.362-.934-.934-.362-.4-.916-.916.4-.934-.362-.362.934-.916.4.4.916Z" fill="#ffdd9a"/>
      </g>
      <g id="Group_221" data-name="Group 221">
        <path id="Path_285" data-name="Path 285" d="M181.784,140.567c-1.524,2.092-6.438,5.484-6.438,5.484,3.54-.5,5.873.684,11.25,1.261s11.387-3.88,11.387-3.88a55.474,55.474,0,0,1-3.6-8.569C189.45,135.987,183.308,138.475,181.784,140.567Zm6.427-1.158.618-1.6,1.594.618,1.564-.691.691,1.564,1.594.617-.617,1.6.691,1.564-1.564.69-.618,1.6-1.594-.618-1.564.691-.691-1.564-1.594-.617.617-1.594-.691-1.564Z" fill="#ffdd9a"/>
      </g>
      <g id="Group_222" data-name="Group 222">
        <path id="Path_286" data-name="Path 286" d="M188.738,157.426c-1.425,3.762-5.652,7.819-5.652,7.819a90.327,90.327,0,0,1,11.481-2c5.354-.482,11.9-6.277,11.9-6.277-2.829-3.012-6.794-9.686-6.794-9.686C193.918,150.466,190.162,153.664,188.738,157.426Zm5.768-3.018.373-1.851,1.851.374,1.573-1.045,1.045,1.572,1.851.374-.373,1.851,1.045,1.573L200.3,158.3l-.374,1.851-1.851-.373-1.573,1.045-1.045-1.573-1.851-.374.374-1.851-1.045-1.573Z" fill="#ffdd9a"/>
      </g>
      <g id="Group_223" data-name="Group 223">
        <path id="Path_287" data-name="Path 287" d="M195.177,157.833l1.085.219.612.922.922-.612,1.085.219.219-1.085.922-.612-.612-.922.219-1.085-1.085-.219-.612-.922-.922.612-1.085-.219-.219,1.085-.922.612.612.922Z" fill="#ffdd9a"/>
      </g>
      <g id="Group_224" data-name="Group 224">
        <path id="Path_288" data-name="Path 288" d="M325.148,173.031a3.9,3.9,0,0,1,3.834,2.949,65.524,65.524,0,0,0,4.368-9.156A27.579,27.579,0,0,1,325.148,173.031Z" fill="#ffdd9a"/>
      </g>
      <g id="Group_225" data-name="Group 225">
        <path id="Path_289" data-name="Path 289" d="M276.241,191.587c3.44,1.037,3.949,3.6,3.949,3.6a7.048,7.048,0,0,1,1.86-3.612c1.49-1.357,1.955-3.605,1.651-3.962,0,0-8.444,1.108-14.033-.3A18.38,18.38,0,0,0,276.241,191.587Z" fill="#ffdd9a"/>
      </g>
      <g id="Group_226" data-name="Group 226">
        <path id="Path_290" data-name="Path 290" d="M207.82,187.443a1.342,1.342,0,1,0-1.892-.152A1.342,1.342,0,0,0,207.82,187.443Z" fill="#ffdd9a"/>
      </g>
      <g id="Group_227" data-name="Group 227">
        <path id="Path_291" data-name="Path 291" d="M226.481,196.211a1.342,1.342,0,1,0-1.892-.151A1.343,1.343,0,0,0,226.481,196.211Z" fill="#ffdd9a"/>
      </g>
      <g id="Group_228" data-name="Group 228">
        <path id="Path_292" data-name="Path 292" d="M245.94,197.467a1.342,1.342,0,1,0,1.892.151A1.341,1.341,0,0,0,245.94,197.467Z" fill="#ffdd9a"/>
      </g>
      <g id="Group_229" data-name="Group 229">
        <path id="Path_293" data-name="Path 293" d="M267.273,193.844a1.342,1.342,0,1,0,1.892.152A1.342,1.342,0,0,0,267.273,193.844Z" fill="#ffdd9a"/>
      </g>
      <g id="Group_230" data-name="Group 230">
        <path id="Path_294" data-name="Path 294" d="M277.554,201.775a1.342,1.342,0,1,0,1.893.152A1.342,1.342,0,0,0,277.554,201.775Z" fill="#ffdd9a"/>
      </g>
      <g id="Group_231" data-name="Group 231">
        <path id="Path_295" data-name="Path 295" d="M288.505,197.738a1.342,1.342,0,1,0-.152,1.892A1.342,1.342,0,0,0,288.505,197.738Z" fill="#ffdd9a"/>
      </g>
      <g id="Group_232" data-name="Group 232">
        <path id="Path_296" data-name="Path 296" d="M298.52,189.208a1.342,1.342,0,1,0,1.892.152A1.343,1.343,0,0,0,298.52,189.208Z" fill="#ffdd9a"/>
      </g>
      <g id="Group_233" data-name="Group 233">
        <path id="Path_297" data-name="Path 297" d="M263.034,206.979a1.342,1.342,0,1,0,1.893.151A1.342,1.342,0,0,0,263.034,206.979Z" fill="#ffdd9a"/>
      </g>
      <g id="Group_234" data-name="Group 234">
        <path id="Path_298" data-name="Path 298" d="M207.353,201.071a1.342,1.342,0,1,0-1.893-.151A1.342,1.342,0,0,0,207.353,201.071Z" fill="#ffdd9a"/>
      </g>
      <g id="Group_235" data-name="Group 235">
        <path id="Path_299" data-name="Path 299" d="M216.419,204.781a1.342,1.342,0,1,0-1.892-.152A1.343,1.343,0,0,0,216.419,204.781Z" fill="#ffdd9a"/>
      </g>
      <g id="Group_236" data-name="Group 236">
        <path id="Path_300" data-name="Path 300" d="M230.931,209.242a1.342,1.342,0,1,0-1.893-.151A1.342,1.342,0,0,0,230.931,209.242Z" fill="#ffdd9a"/>
      </g>
      <g id="Group_237" data-name="Group 237">
        <path id="Path_301" data-name="Path 301" d="M238.7,208.487a1.342,1.342,0,1,0,1.893.152A1.343,1.343,0,0,0,238.7,208.487Z" fill="#ffdd9a"/>
      </g>
      <g id="Group_238" data-name="Group 238">
        <path id="Path_302" data-name="Path 302" d="M253.532,208.451a1.342,1.342,0,1,0,1.892.151A1.341,1.341,0,0,0,253.532,208.451Z" fill="#ffdd9a"/>
      </g>
      <g id="Group_239" data-name="Group 239">
        <path id="Path_303" data-name="Path 303" d="M193.467,191.224a1.342,1.342,0,1,0,1.892.152A1.343,1.343,0,0,0,193.467,191.224Z" fill="#ffdd9a"/>
      </g>
      <g id="Group_240" data-name="Group 240">
        <path id="Path_304" data-name="Path 304" d="M202.671,193.5c-1.766-1.141-5.084,5.211-5.691,8.638C196.98,202.142,204.436,194.645,202.671,193.5Z" fill="#ffdd9a"/>
      </g>
      <g id="Group_241" data-name="Group 241">
        <path id="Path_305" data-name="Path 305" d="M223.706,202.83c-2.478-.27-2.617,6.813-2.379,9.784C221.327,212.614,226.184,203.1,223.706,202.83Z" fill="#ffdd9a"/>
      </g>
      <g id="Group_242" data-name="Group 242">
        <path id="Path_306" data-name="Path 306" d="M247.3,206.362c-2.009.125-1.2,5.935.13,9.882C247.43,216.244,249.31,206.237,247.3,206.362Z" fill="#ffdd9a"/>
      </g>
      <g id="Group_243" data-name="Group 243">
        <path id="Path_307" data-name="Path 307" d="M270.593,202.657c-2.433.662,2.731,9,2.731,9S273.027,201.994,270.593,202.657Z" fill="#ffdd9a"/>
      </g>
      <g id="Group_244" data-name="Group 244">
        <path id="Path_308" data-name="Path 308" d="M291.913,192.08c-1.737,1.48,3.122,5.717,5.426,7.81C297.339,199.89,293.65,190.6,291.913,192.08Z" fill="#ffdd9a"/>
      </g>
      <g id="Group_245" data-name="Group 245">
        <path id="Path_309" data-name="Path 309" d="M257.483,199.893s-.488-2.229,1.291-5.42a14.789,14.789,0,0,0,2.1-8.138s-6.369-1.011-11.221-2.257a8.3,8.3,0,0,0,2.3,7.118A38.013,38.013,0,0,1,257.483,199.893Zm-4.043-11.472.065-1.458,1.458.065,1.076-.986.985,1.077,1.458.065-.064,1.458.985,1.076-1.077.986-.064,1.458L256.8,192.1l-1.077.985-.985-1.077-1.458-.064.065-1.458-.986-1.077Z" fill="#ffdd9a"/>
      </g>
      <g id="Group_246" data-name="Group 246">
        <path id="Path_310" data-name="Path 310" d="M254.36,190.956l.854.038.577.631.631-.577.854.038.038-.854.631-.577-.577-.631.038-.854-.854-.038-.577-.631-.631.577-.854-.038-.038.854-.631.577.577.631Z" fill="#ffdd9a"/>
      </g>
      <g id="Group_247" data-name="Group 247">
        <path id="Path_311" data-name="Path 311" d="M235.49,186.723l.941.343.423.908.908-.423.941.343.343-.941.908-.423-.423-.908.343-.941-.941-.343-.423-.908-.908.423-.941-.343-.343.941-.908.423.423.908Z" fill="#ffdd9a"/>
      </g>
      <g id="Group_248" data-name="Group 248">
        <path id="Path_312" data-name="Path 312" d="M235.893,199.855a21.108,21.108,0,0,1,4.5-6.624c3.1-3.028,4.447-10.389,4.447-10.389s-6.511-2.654-10.922-4.848c0,0-3.826,6.565-1.624,11.169A60.761,60.761,0,0,1,235.893,199.855Zm-.54-16.288.585-1.607,1.606.585,1.55-.722.722,1.549,1.607.585-.585,1.607.723,1.549-1.55.723-.585,1.606-1.607-.585-1.549.723-.723-1.55-1.606-.585.585-1.606-.723-1.55Z" fill="#ffdd9a"/>
      </g>
      <g id="Group_249" data-name="Group 249">
        <path id="Path_313" data-name="Path 313" d="M220.313,179.437l.208.98.98-.208.84.545.546-.84.98-.208-.208-.98.545-.84-.84-.545-.208-.98-.98.208-.84-.545-.546.84-.98.208.208.98-.546.84Z" fill="#ffdd9a"/>
      </g>
      <g id="Group_250" data-name="Group 250">
        <path id="Path_314" data-name="Path 314" d="M215.024,192.636s4.13-4.311,6.438-5.483,5.741-6.84,7.636-11.53a55.431,55.431,0,0,1-7.887-4.919s-5.357,5.223-5.643,10.624S216.083,189.222,215.024,192.636Zm3.352-16.495,1.672-.356.931-1.434,1.434.931,1.673-.356.356,1.673,1.434.93-.931,1.435.355,1.672-1.672.356-.931,1.434-1.434-.931-1.672.356-.356-1.673-1.434-.931.931-1.434Z" fill="#ffdd9a"/>
      </g>
      <g id="Group_251" data-name="Group 251">
        <path id="Path_315" data-name="Path 315" d="M197.3,181.94s4.679-3.527,8.619-4.335,7.7-4.007,11.753-9.181c0,0-5.958-4.976-8.481-8.249,0,0-6.763,5.539-8.091,10.748A90.135,90.135,0,0,1,197.3,181.94Zm7.708-15.813,1.887-.074,1.282-1.387,1.387,1.282,1.887-.074.074,1.887,1.386,1.282-1.282,1.387.074,1.887-1.887.074-1.282,1.386-1.386-1.282-1.887.074-.074-1.887L203.8,169.4l1.282-1.386Z" fill="#ffdd9a"/>
      </g>
      <g id="Group_252" data-name="Group 252">
        <path id="Path_316" data-name="Path 316" d="M206.5,170.077l.043,1.106,1.106-.043.812.751.751-.812,1.105-.043-.043-1.105.751-.812-.812-.751-.043-1.106-1.106.043-.812-.751-.751.812-1.106.043.043,1.106-.751.812Z" fill="#ffdd9a"/>
      </g>
    </g>
    <g id="Group_360" data-name="Group 360">
      <g id="Group_297" data-name="Group 297">
        <path id="Path_349" data-name="Path 349" d="M341.72,154.754a1.209,1.209,0,0,0-1.5.262,84.751,84.751,0,0,1-8.9,8.8A83.681,83.681,0,1,1,222.8,36.4a84.74,84.74,0,0,1,10.1-7.386,1.208,1.208,0,0,0-.805-2.222,100.682,100.682,0,0,0,5.933,200.069q4.116.329,8.2.328a100.722,100.722,0,0,0,96.056-71.025A1.209,1.209,0,0,0,341.72,154.754Zm-32.165,38.811c-.278-4.384-.083-9.273,1.22-10.4a.632.632,0,0,1,.444-.174,1.153,1.153,0,0,1,.3.045,1.007,1.007,0,0,1,.735.645C313,185.491,311.341,189.93,309.555,193.565Zm10.017-12.134a.858.858,0,0,1,.32-.075.476.476,0,0,1,.245.068c.037.021.094.054.126.237.417,2.367-4.663,9.752-9.386,15.752C313.221,190.956,317.009,182.488,319.572,181.431Zm-11.835,18.984c-.208.653-.368,1.186-.468,1.545a.537.537,0,0,0-.011.058,11.183,11.183,0,0,1-1.247,2.349c-.358.276-.721.544-1.082.814.823-3.315,1.671-8.363-.057-10.577a3.445,3.445,0,0,0-5.525.419,3.648,3.648,0,0,0-.324.809c-1.735-3.515-3.861-6.624-6.2-7.48a3.893,3.893,0,0,0-3.674.511,4.107,4.107,0,0,0-1.4,1.6,10.869,10.869,0,0,0,.543-4.086,13.676,13.676,0,0,0,7.655,1.152c3.186-.192,5.937-.356,9.2,3.679C307.988,194.719,308.258,197.957,307.737,200.415ZM249.67,223.434c.64-3.553,1.857-7.7,3.469-8.541a1.013,1.013,0,0,1,.479-.125,1.484,1.484,0,0,1,.719.217,1.152,1.152,0,0,1,.716.965C255.2,217.76,252.338,221,249.67,223.434Zm-4.217-18.205a1.884,1.884,0,0,1,1.652-.855h.073a1.867,1.867,0,0,1,1.617.778c2.143,2.878.28,11.971-1.262,17.592C245.732,217.2,243.446,208.2,245.453,205.229Zm5.884,19.4c2.5-2.323,5.953-6.06,5.723-8.849a3.444,3.444,0,0,0-4.849-2.679,3.652,3.652,0,0,0-.716.5c.478-3.89.4-7.656-1.085-9.656a4.13,4.13,0,0,0-6.626.154c-1.395,2.067-1.292,5.833-.634,9.7a3.673,3.673,0,0,0-.737-.464,3.444,3.444,0,0,0-4.72,2.9c-.1,2.766,3.44,6.29,6.043,8.5q-.8-.021-1.607-.055c-2.274-.872-7.048-3.6-6.651-11.03.274-5.111,2.9-8.568,5.69-12.229a34.22,34.22,0,0,0,5.648-9.44,34.223,34.223,0,0,0,6.082,9.167c2.6,3.107,5.074,6.064,5.976,10.207.056.479.14.967.241,1.461.011.1.027.186.037.282.778,7.755-4.405,10.633-6.461,11.461C252.24,224.59,251.788,224.611,251.337,224.634Zm-5.906-1.1c-2.778-2.306-5.791-5.408-5.726-7.226a1.152,1.152,0,0,1,.671-1,1.431,1.431,0,0,1,.753-.251,1.015,1.015,0,0,1,.439.1C243.218,215.924,244.627,220.014,245.431,223.535ZM191.5,206.57c-.966-3.479-1.669-7.746-.579-9.2a1.1,1.1,0,0,1,.988-.442c.043,0,.087,0,.133,0a1.152,1.152,0,0,1,1.063.56C194.027,199.057,192.851,203.22,191.5,206.57Zm11.035-2.712a1.661,1.661,0,0,1,.226.015,1.447,1.447,0,0,1,.968,1.96c-.91,1.572-5.112,2.6-8.691,3.074C197.49,206.456,200.691,203.858,202.537,203.858Zm-8.857,3.262c1.684-5.581,4.941-14.272,8.287-15.569a1.931,1.931,0,0,1,.707-.141,2.04,2.04,0,0,1,1.137.381,1.884,1.884,0,0,1,.944,1.6C204.873,196.98,198.153,203.383,193.68,207.12Zm1.912,3.742c3.384-.468,8.461-1.567,9.881-4.019a3.445,3.445,0,0,0-2.453-4.968,3.721,3.721,0,0,0-.87,0c2.611-2.921,4.7-6.054,4.618-8.546a4.131,4.131,0,0,0-5.53-3.655c-2.324.9-4.389,4.053-6.054,7.6a3.729,3.729,0,0,0-.34-.8,3.445,3.445,0,0,0-5.532-.31c-1.712,2.284-.706,7.442.194,10.736-.306-.216-.61-.435-.914-.654a10.252,10.252,0,0,1-.645-11.979q.588-.486,1.176-1.068h0a17.112,17.112,0,0,0,2.426-3.028c2.682-2.12,5.808-3.133,9.07-4.188a34.263,34.263,0,0,0,10.026-4.53,34.26,34.26,0,0,0-.238,11c.343,3.807.664,7.44-.663,11.126a17.3,17.3,0,0,0-1.016,2.246l-.005.01c-3.9,7.021-10.048,6.174-12.034,5.68Q196.139,211.19,195.592,210.862Zm-47.456-91.741a11.726,11.726,0,0,0,5.836,4.967,11.752,11.752,0,0,0-6.086,4.864Q147.768,124.032,148.136,119.121Zm52.12-79.557c2.383-.431,6.8-.7,8.179,1.573,1.305,2.148-.209,6.323-1.474,8.927A85.009,85.009,0,0,0,195.249,73.2a13.864,13.864,0,0,1,.473-5.209c.749-3.35,1.522-6.815-2.633-11.454-.269-.3-.54-.578-.811-.844a30.208,30.208,0,0,0,5.1.521,7,7,0,0,0,4.347-1.061,2.7,2.7,0,0,0,.958-2.472,3.013,3.013,0,0,0-1.472-2.333,4.642,4.642,0,0,0-1.515-.553c2.642-1.026,4.743-2.213,5.561-3.544a2.577,2.577,0,0,0,.268-2.314,2.259,2.259,0,0,0-1.44-1.362c-3.562-1.237-13.92,4.175-19.778,7.511A98.482,98.482,0,0,1,200.256,39.564Zm-6.58,35.73a10.855,10.855,0,0,0-4.088-.119,4.12,4.12,0,0,0,1.772-1.122,3.893,3.893,0,0,0,1.089-3.546c-.472-2.448-3.2-5.043-6.4-7.314A3.679,3.679,0,0,0,186.9,63a3.444,3.444,0,0,0,1.293-5.388c-1.909-2.058-7.025-2.025-10.429-1.74.33-.319.657-.638.992-.953a11.081,11.081,0,0,1,2.417-.84l.025,0a1.088,1.088,0,0,0,.114-.006c.393-.044.989-.124,1.726-.235a9.6,9.6,0,0,1,3.023.367.992.992,0,0,0,.122.047l.359.1a12.082,12.082,0,0,1,5.045,3.521c3.464,3.868,2.864,6.558,2.168,9.672A13.671,13.671,0,0,0,193.676,75.294Zm-15.47-5.823a1.448,1.448,0,0,1-2.1.6c-1.385-1.176-1.643-5.493-1.472-9.1C176.688,63.942,178.757,67.74,178.206,69.471Zm-.644-11.561c3.6-.33,7.92-.26,9.158,1.074a1.448,1.448,0,0,1-.511,2.127C184.5,61.736,180.618,59.835,177.562,57.91Zm-.929,2.043c5.189,2.653,13.159,7.409,13.839,10.935A2.118,2.118,0,0,1,188.16,73.3C184.61,72.779,179.51,65.023,176.633,59.953Zm23.525-7.887a1.009,1.009,0,0,1,.52.828.711.711,0,0,1-.245.713c-1.326,1.105-6.183.521-10.467-.451C193.84,51.971,198.486,51.043,200.158,52.066Zm-13.781-.828c6.08-3.377,13.342-6.864,16.3-6.864a2.29,2.29,0,0,1,.741.1c.176.061.2.122.214.163a.575.575,0,0,1-.1.556C202.087,47.559,193.124,49.951,186.377,51.238Zm-13.771,10.01c-.137,3.414.05,8.539,2.193,10.36a3.03,3.03,0,0,0,1.994.736,3.807,3.807,0,0,0,1.054-.156,3.142,3.142,0,0,0,2.278-2.107,3.7,3.7,0,0,0,.155-.858c2.408,3.092,5.119,5.708,7.586,6.072a4.144,4.144,0,0,0,.614.046c.086,0,.171-.007.256-.013a30.8,30.8,0,0,0-3.131.887c-3.423,1.106-6.379,2.062-10.391-1.228-6.094-5-4.35-10.769-3.488-12.747C172.015,61.907,172.312,61.579,172.606,61.248Zm-1.741,11.967a11.725,11.725,0,0,0-7.7.524,97.414,97.414,0,0,1,5.705-8.041A11.728,11.728,0,0,0,170.865,73.215ZM160.489,80.77c3.352-1.343,7.517-2.512,9.08-1.589a1.445,1.445,0,0,1,.119,2.183C168.233,82.451,163.967,81.74,160.489,80.77Zm3.92,10.894a1.447,1.447,0,0,1-1.842,1.179c-1.663-.732-3.145-4.8-4.012-8.3C161.374,86.8,164.442,89.848,164.409,91.664Zm-4.228-8.67c5.732,1.059,14.729,3.339,16.387,6.521a2.118,2.118,0,0,1-1.524,2.975C171.5,92.993,164.388,87.029,160.181,82.994Zm-3.436,2.6c.859,3.3,2.489,7.986,5.011,9.1a3.086,3.086,0,0,0,1.24.266,3.39,3.39,0,0,0,1.846-.582,3.144,3.144,0,0,0,1.581-2.67,3.7,3.7,0,0,0-.1-.869c2.911,2.074,5.949,3.7,8.334,3.7a4.59,4.59,0,0,0,.671-.047,4.13,4.13,0,0,0,3.024-5.9c-1.152-2.211-4.509-3.915-8.217-5.178a3.726,3.726,0,0,0,.756-.429,3.444,3.444,0,0,0-.3-5.532c-2.391-1.411-7.2.033-10.379,1.27q.366-.659.742-1.31c1.778-1.56,6.505-4.639,12.966-.674,4.362,2.677,6.147,6.638,8.036,10.832a34.254,34.254,0,0,0,5.607,9.466A34.288,34.288,0,0,0,176.606,98c-3.923.8-7.657,1.551-11.67.431-.434-.167-.885-.316-1.351-.452-.155-.06-.31-.114-.466-.179-6.789-2.846-7.218-8.294-7.033-10.746C156.3,86.567,156.523,86.078,156.745,85.59Zm1.67,11.737a11.71,11.71,0,0,0-6.946,2.72q1.272-4.575,2.989-9.032A11.7,11.7,0,0,0,158.415,97.327Zm4.244,2.481c.087.023.168.051.253.075q.7.265,1.384.462c3.969,1.545,6.5,4.465,9.166,7.539a34.257,34.257,0,0,0,8.083,7.463,34.238,34.238,0,0,0-10.219,4.073c-4.057,2.168-7.885,4.217-12.978,3.672-7.242-.773-9.248-5.769-9.8-8.2q.1-.825.209-1.649c1.771,2.916,4.664,6.912,7.389,7.252a3.444,3.444,0,0,0,3.616-4.2,3.667,3.667,0,0,0-.341-.8,22.8,22.8,0,0,0,6.936,1.427,6.544,6.544,0,0,0,2.737-.509,4.132,4.132,0,0,0,1.208-6.518c-1.738-1.788-5.443-2.46-9.358-2.608a3.626,3.626,0,0,0,.6-.626,3.444,3.444,0,0,0-1.873-5.214c-2.694-.664-6.885,2.094-9.579,4.19.1-.484.21-.967.322-1.449C151.664,102.192,155.312,97.853,162.659,99.808Zm-2.727,5.651c-1.083,1.458-5.375,2-8.986,2.065,2.592-2.061,5.88-4.177,7.77-4.177a1.944,1.944,0,0,1,.476.054,1.447,1.447,0,0,1,.74,2.058Zm-2.444,12.534a1.155,1.155,0,0,1-1.091.5c-1.8-.224-4.387-3.693-6.222-6.8,3.348,1.355,7.16,3.4,7.649,5.146A1.152,1.152,0,0,1,157.488,117.993Zm-6.2-8.25c5.794-.628,15.067-1.022,17.569,1.554a2.118,2.118,0,0,1-.609,3.287C164.993,116.092,156.475,112.4,151.289,109.743Zm-1.6,26.186c2.1-2.942,4.966-6.177,6.781-6.246h.056a1.169,1.169,0,0,1,.989.595,1.157,1.157,0,0,1,.236,1.179C157.114,133.157,153.141,134.866,149.689,135.929Zm9.185,8.248a1.152,1.152,0,0,1-.91.785c-1.787.28-5.237-2.334-7.863-4.814,3.591.373,7.82,1.279,8.776,2.826A1.154,1.154,0,0,1,158.874,144.177Zm9.071-9.583a2.12,2.12,0,0,1,.326,3.327c-2.712,2.352-11.919,1.166-17.639.045C156.026,135.758,164.826,132.812,167.945,134.594Zm-18.894,7.327c2.346,2.176,5.975,5.071,8.69,5.071a3.385,3.385,0,0,0,.537-.041,3.444,3.444,0,0,0,2.312-5.034,3.619,3.619,0,0,0-.55-.677c.614.03,1.225.046,1.825.046,3.221,0,6.136-.466,7.724-1.843a4.13,4.13,0,0,0-.645-6.6c-2.165-1.238-5.912-.856-9.717.086a3.646,3.646,0,0,0,.409-.77,3.444,3.444,0,0,0-3.244-4.491c-2.851.109-6.221,4.136-8.212,6.91-.029-.358-.055-.716-.08-1.074.365-1.685,2.3-8.062,10.706-8.236,5.106-.093,8.761,2.261,12.617,4.768a34.249,34.249,0,0,0,9.834,4.932,34.281,34.281,0,0,0-8.692,6.745c-2.7,2.624-5.277,5.127-8.886,6.437a17.084,17.084,0,0,0-2.38.647c-.063.012-.123.027-.188.038-7.418,1.3-10.706-3.279-11.8-5.383C149.22,142.944,149.132,142.433,149.051,141.921Zm8.03,9.08a11.717,11.717,0,0,0-4.316,6.3,98.094,98.094,0,0,1-2.6-9.479A11.724,11.724,0,0,0,157.081,151Zm4.73-.251.01,0a17.339,17.339,0,0,0,2.379-.646c3.851-.724,7.385.171,11.09,1.116a34.268,34.268,0,0,0,10.9,1.515,34.266,34.266,0,0,0-6.068,9.177c-1.561,3.053-3.059,5.978-5.578,8.288a17.127,17.127,0,0,0-3.376,1.914c-.443.323-.844.652-1.225.985a10.245,10.245,0,0,1-11.667-2.457c-.18-.357-.363-.712-.538-1.07,2.345,1.063,5.71,2.346,8.3,2.346a4.8,4.8,0,0,0,2.229-.462,3.444,3.444,0,0,0,.574-5.51,3.691,3.691,0,0,0-.738-.464c3.768-1.079,7.207-2.616,8.467-4.767a4.129,4.129,0,0,0-2.728-6.041c-2.448-.476-5.875,1.088-9.175,3.2a3.724,3.724,0,0,0,.14-.862,3.444,3.444,0,0,0-4.514-3.213c-2.632,1.006-4.517,5.794-5.523,9.058-.17-.429-.331-.861-.5-1.293C154.128,159.371,154.452,153.415,161.811,150.75ZM156.6,163.77c1.04-3.458,2.721-7.443,4.418-8.091a1.038,1.038,0,0,1,.38-.076,1.377,1.377,0,0,1,.8.3,1.151,1.151,0,0,1,.6,1.04C162.738,158.762,159.523,161.655,156.6,163.77Zm11.346,4.864a1.153,1.153,0,0,1-.609,1.036c-1.61.843-5.71-.529-8.992-2.036,3.522-.8,7.818-1.3,9.218-.139A1.152,1.152,0,0,1,167.942,168.634Zm-9.8-3.237c4.151-3.606,10.964-8.807,14.68-8.807a3.3,3.3,0,0,1,.634.057,2.118,2.118,0,0,1,1.376,3.047C173.02,162.79,163.921,164.623,158.143,165.4Zm7.635,10.574a12.022,12.022,0,0,0,1.711-.128,11.715,11.715,0,0,0-2.006,6.885q-2.753-3.939-5.069-8.066A11.772,11.772,0,0,0,165.778,175.971Zm5.245-1.148c.492-.211.991-.446,1.5-.726a17.086,17.086,0,0,0,3.1-2.17c3.144-1.267,6.407-1.373,9.81-1.481a34.238,34.238,0,0,0,10.889-1.568,34.239,34.239,0,0,0-3.282,10.5c-.648,3.343-1.272,6.547-3.024,9.45a17.116,17.116,0,0,0-2.634,2.71c-.358.46-.67.916-.956,1.367a10.242,10.242,0,0,1-11.907.95c-.278-.3-.55-.6-.825-.9a34.479,34.479,0,0,0,4.8.384c2.351,0,4.618-.356,5.813-1.5a3.444,3.444,0,0,0-.979-5.453,3.656,3.656,0,0,0-.837-.242c3.32-2.081,6.2-4.512,6.81-6.929a4.129,4.129,0,0,0-4.3-5.046c-2.484.22-5.342,2.674-7.926,5.621a3.679,3.679,0,0,0-.105-.865,3.444,3.444,0,0,0-5.228-1.834c-2.262,1.707-2.737,6.878-2.792,10.293-.254-.321-.511-.641-.76-.964A10.24,10.24,0,0,1,171.023,174.823Zm-.069,12.874c.038-3.611.546-7.9,2-9a1,1,0,0,1,.633-.217,1.7,1.7,0,0,1,.564.108,1.155,1.155,0,0,1,.867.833C175.465,181.18,173.179,184.852,170.954,187.7Zm11.567.534a1.448,1.448,0,0,1,.386,2.153c-1.311,1.257-5.633,1.075-9.2.54C176.865,189.18,180.854,187.507,182.521,188.231Zm-9.628.6c3.167-4.893,8.709-12.339,12.283-12.657.069-.006.137-.009.2-.009a2.135,2.135,0,0,1,1.965,2.554C186.461,182.2,178.228,186.481,172.893,188.829Zm7.057,8.494a11.642,11.642,0,0,0,4.9-1.087,11.718,11.718,0,0,0,.055,7.207q-3.725-2.974-7.18-6.327A12.3,12.3,0,0,0,179.95,197.323Zm27.778,13.134a11.733,11.733,0,0,0,2.1,7.428,97.023,97.023,0,0,1-9.1-4.156A11.737,11.737,0,0,0,207.728,210.457Zm2.772-3.632c.02-.06.045-.115.066-.175a17.142,17.142,0,0,0,1.021-2.254c1.868-3.353,4.748-5.5,7.768-7.746a34.251,34.251,0,0,0,8.041-7.507,34.231,34.231,0,0,0,3.305,10.494c1.861,4.206,3.618,8.179,2.7,13.214-1.585,8.68-8.782,9.238-10.051,9.269-.3-.072-.606-.147-.909-.221,3.056-1.518,7.639-4.225,8.205-7.047a3.444,3.444,0,0,0-3.917-3.916,3.678,3.678,0,0,0-.826.28c1.536-3.605,2.509-7.244,1.632-9.579a4.13,4.13,0,0,0-6.41-1.686c-1.912,1.6-2.857,5.246-3.294,9.141a3.727,3.727,0,0,0-.58-.651,3.444,3.444,0,0,0-5.339,1.482c-.876,2.675,1.648,7.148,3.549,9.986-.455-.148-.911-.3-1.364-.452C212.268,218.163,207.944,214.189,210.5,206.825Zm6.827,12.252c-2.031-2.986-4.067-6.8-3.5-8.528a1.151,1.151,0,0,1,.92-.773,1.819,1.819,0,0,1,.486-.074,1.007,1.007,0,0,1,.7.262C217.307,211.152,217.529,215.471,217.327,219.077Zm5.09-17.582a1.8,1.8,0,0,1,1.2-.453,2.443,2.443,0,0,1,.628.089,1.882,1.882,0,0,1,1.409,1.214c1.262,3.359-3.046,11.58-6.084,16.555C219.369,213.074,219.665,203.8,222.417,201.495Zm4.709,11.414a1.161,1.161,0,0,1,.23-.024,1.255,1.255,0,0,1,.9.444,1.155,1.155,0,0,1,.42,1.127c-.357,1.781-4.008,4.1-7.246,5.7C223.024,216.919,225.342,213.268,227.126,212.909Zm6.673,4.9a11.733,11.733,0,0,0,4.035,6.6q-5.013-.422-9.9-1.332A11.761,11.761,0,0,0,233.8,217.811Zm27.128-.131a11.715,11.715,0,0,0,5.692,4.955q-4.725,1-9.559,1.538A11.717,11.717,0,0,0,260.927,217.68Zm17.551-8.585a1.023,1.023,0,0,1,.765-.3,1.9,1.9,0,0,1,.41.048,1.153,1.153,0,0,1,.963.72c.662,1.691-1.155,5.617-3.014,8.713C277.2,214.686,277.172,210.361,278.478,209.1Zm-3.121,9.128c-3.314-4.794-8.081-12.758-7.01-16.185a1.883,1.883,0,0,1,1.338-1.293,2.364,2.364,0,0,1,.731-.127,1.811,1.811,0,0,1,1.111.387C274.4,203.149,275.223,212.4,275.357,218.223Zm-1.787,1.359c-3.323-1.413-7.1-3.522-7.556-5.283a1.151,1.151,0,0,1,.356-1.148,1.22,1.22,0,0,1,.926-.5,1.18,1.18,0,0,1,.174.014C269.269,212.924,271.79,216.439,273.57,219.582Zm5.978-.648c1.733-2.943,3.961-7.505,2.943-10.107a3.444,3.444,0,0,0-5.414-1.178,3.689,3.689,0,0,0-.542.682c-.657-3.864-1.806-7.451-3.8-8.94a4.131,4.131,0,0,0-6.305,2.046c-.744,2.38.433,5.958,2.17,9.471a3.667,3.667,0,0,0-.84-.234,3.445,3.445,0,0,0-3.69,4.133c.7,2.691,5.14,5.064,8.269,6.432q-.74.2-1.483.4c-2.368-.154-7.872-1.318-9.649-8.671-.039-.162-.068-.322-.1-.483-.061-.484-.137-.956-.233-1.413-.466-4.14.874-7.7,2.283-11.45a34.272,34.272,0,0,0,2.707-10.664A34.247,34.247,0,0,0,274.311,196c3.84,2.533,7.466,4.925,9.415,9.658,2.947,7.158-1.118,11.39-2.871,12.8C280.421,218.621,279.984,218.776,279.548,218.934Zm7.164-9.7a11.728,11.728,0,0,0,7.144,3.165,97.373,97.373,0,0,1-8.922,4.4A11.728,11.728,0,0,0,286.712,209.232Zm-1.057-4.578c-2.61-4.484-1.2-7.25.441-10.453a30.383,30.383,0,0,0,1.374-2.953,4.1,4.1,0,0,0-.106.868c-.033,2.493,2.117,5.585,4.786,8.454a3.657,3.657,0,0,0-.871.017,3.445,3.445,0,0,0-2.355,5.015c1.46,2.409,6.5,3.409,9.9,3.816-.368.235-.736.471-1.107.7C295.646,210.656,289.635,211.5,285.655,204.654Zm15.448-8.646a1.155,1.155,0,0,1,1.053-.58c.061,0,.119-.007.174-.007a1.087,1.087,0,0,1,.954.421c1.118,1.432.5,5.713-.4,9.212C301.472,201.732,300.213,197.594,301.1,196.008ZM299.4,207.46c-3.589-.406-7.81-1.348-8.751-2.9a1.446,1.446,0,0,1,.93-1.979,1.749,1.749,0,0,1,.265-.019C293.693,202.56,296.916,205.075,299.4,207.46Zm1.324-1.813c-4.546-3.646-11.391-9.915-11.344-13.505a1.888,1.888,0,0,1,.912-1.622,2.03,2.03,0,0,1,1.163-.4,1.977,1.977,0,0,1,.677.127C295.5,191.475,298.928,200.1,300.721,205.647Zm-14.529-19.912c.454,2.954-.686,5.195-1.89,7.55a15.029,15.029,0,0,0-2.089,6.361,35.8,35.8,0,0,0-6.793-5.331c-3.448-2.274-7.006-4.629-9.522-8.836q2.133.277,4.293.45A87.062,87.062,0,0,0,286.192,185.735Zm-74.675-29.8a85.46,85.46,0,0,0,52.261,29.245,1,1,0,0,0-.045.427c.606,5.141-.956,9.291-2.466,13.3a40.189,40.189,0,0,0-2.217,7.279,39.212,39.212,0,0,0-4.608-6.332c-2.753-3.287-5.6-6.686-6.728-11.738a1.007,1.007,0,0,0-1.975.046c-.891,5.1-3.576,8.627-6.173,12.039a39.76,39.76,0,0,0-4.255,6.432,37.154,37.154,0,0,0-2.769-7.813c-1.735-3.921-3.529-7.976-3.214-13.143a1.006,1.006,0,0,0-1.909-.5c-2.27,4.653-5.827,7.3-9.267,9.859a42.421,42.421,0,0,0-5.524,4.626,41.4,41.4,0,0,0-.215-7.393c-.384-4.27-.781-8.686,1.175-13.479a1.007,1.007,0,0,0-1.647-1.089c-3.643,3.679-7.861,5.044-11.941,6.364a42.155,42.155,0,0,0-6.737,2.619,42.816,42.816,0,0,0,1.751-6.922c.816-4.209,1.66-8.561,4.869-12.623a1.006,1.006,0,0,0-1.28-1.5c-4.52,2.523-8.952,2.663-13.237,2.8a42.7,42.7,0,0,0-7.112.627,42.2,42.2,0,0,0,3.658-6.235c1.952-3.817,3.971-7.765,8.183-10.775a1.007,1.007,0,0,0-.813-1.8c-5.043,1.168-9.34.074-13.495-.985a41.244,41.244,0,0,0-7.265-1.388,42.4,42.4,0,0,0,5.447-4.718c3.074-2.989,6.253-6.08,11.208-7.58a1.007,1.007,0,0,0-.192-1.965c-5.152-.512-8.869-2.927-12.464-5.264a37.187,37.187,0,0,0-7.268-3.978,39.7,39.7,0,0,0,7.021-3.177c3.782-2.02,7.693-4.11,12.869-4.179a1.007,1.007,0,0,0,.36-1.942c-4.809-1.917-7.711-5.269-10.519-8.509a39.126,39.126,0,0,0-5.516-5.557,40.266,40.266,0,0,0,7.538-1.031c4.2-.852,8.547-1.734,13.526-.317a1.009,1.009,0,0,0,.429.024A85.467,85.467,0,0,0,211.517,155.933Zm-20.277-62.7q-.173,2.16-.239,4.311c-3.753-3.155-5.511-7.042-7.208-10.807a35.833,35.833,0,0,0-4.18-7.554,9.389,9.389,0,0,0,1.174.073,17.572,17.572,0,0,0,5.437-1.125c2.516-.814,4.91-1.583,7.753-.665A87.028,87.028,0,0,0,191.24,93.233Zm30-58.673a87.165,87.165,0,0,0-10.456,10.562,7.323,7.323,0,0,0-.625-5.03c-1.131-1.863-3.276-2.57-5.392-2.763a97.68,97.68,0,0,1,22.158-7.216C224.965,31.517,223.064,33,221.237,34.56Zm90.446,165.084c4.225-5.252,11.217-14.618,10.564-18.332a2.267,2.267,0,0,0-1.116-1.639,2.576,2.576,0,0,0-2.327-.1c-1.444.6-2.951,2.481-4.385,4.927a4.617,4.617,0,0,0-.3-1.584,3.017,3.017,0,0,0-2.069-1.825,2.7,2.7,0,0,0-2.592.553c-1.728,1.5-2.093,5.59-2.037,9.238-.219-.311-.45-.622-.7-.936-3.92-4.841-7.465-4.628-10.889-4.422a13.864,13.864,0,0,1-5.222-.362,85.038,85.038,0,0,0,24.7-7.878c2.772-.835,7.139-1.668,9.055-.037,2.024,1.724,1.051,6.046.247,8.33A98.5,98.5,0,0,1,311.683,199.644Zm15.852-18.169c.145-2.12-.211-4.351-1.87-5.764a7.329,7.329,0,0,0-4.868-1.417,87.188,87.188,0,0,0,12.093-8.642q2.74-2.334,5.295-4.9A97.666,97.666,0,0,1,327.535,181.475Z" fill="#ebc883"/>
      </g>
      <g id="Group_298" data-name="Group 298">
        <path id="Path_350" data-name="Path 350" d="M212.226,40.95a27.564,27.564,0,0,1,7.434-7.11,65.464,65.464,0,0,0-9.735,2.855A3.9,3.9,0,0,1,212.226,40.95Z" fill="#ebc883"/>
      </g>
      <g id="Group_299" data-name="Group 299">
        <path id="Path_351" data-name="Path 351" d="M187.059,80.547a7.052,7.052,0,0,1-3.862,1.262s2.45.91,2.927,4.471a18.373,18.373,0,0,0,3.175,7.17c-.5-5.742,1.934-13.9,1.934-13.9C190.929,79.19,188.635,79.292,187.059,80.547Z" fill="#ebc883"/>
      </g>
      <g id="Group_300" data-name="Group 300">
        <path id="Path_352" data-name="Path 352" d="M181.067,156.533a1.342,1.342,0,1,0-1.892-.152A1.341,1.341,0,0,0,181.067,156.533Z" fill="#ebc883"/>
      </g>
      <g id="Group_301" data-name="Group 301">
        <path id="Path_353" data-name="Path 353" d="M175.381,136.714a1.342,1.342,0,1,0-1.893-.151A1.342,1.342,0,0,0,175.381,136.714Z" fill="#ebc883"/>
      </g>
      <g id="Group_302" data-name="Group 302">
        <path id="Path_354" data-name="Path 354" d="M175.5,115.26a1.342,1.342,0,1,0-1.893-.152A1.343,1.343,0,0,0,175.5,115.26Z" fill="#ebc883"/>
      </g>
      <g id="Group_303" data-name="Group 303">
        <path id="Path_355" data-name="Path 355" d="M182.468,94.775a1.342,1.342,0,1,0-1.892-.152A1.342,1.342,0,0,0,182.468,94.775Z" fill="#ebc883"/>
      </g>
      <g id="Group_304" data-name="Group 304">
        <path id="Path_356" data-name="Path 356" d="M174.534,81.319a1.342,1.342,0,1,0,1.892.151A1.341,1.341,0,0,0,174.534,81.319Z" fill="#ebc883"/>
      </g>
      <g id="Group_305" data-name="Group 305">
        <circle id="Ellipse_5" data-name="Ellipse 5" cx="1.342" cy="1.342" r="1.342" transform="matrix(0.735, -0.679, 0.679, 0.735, 179.084, 73.989)" fill="#ebc883"/>
      </g>
      <g id="Group_306" data-name="Group 306">
        <path id="Path_357" data-name="Path 357" d="M190.277,62.62a1.342,1.342,0,1,0,1.892.152A1.341,1.341,0,0,0,190.277,62.62Z" fill="#ebc883"/>
      </g>
      <g id="Group_307" data-name="Group 307">
        <path id="Path_358" data-name="Path 358" d="M168.826,96.869a1.342,1.342,0,1,0-1.892-.151A1.341,1.341,0,0,0,168.826,96.869Z" fill="#ebc883"/>
      </g>
      <g id="Group_308" data-name="Group 308">
        <path id="Path_359" data-name="Path 359" d="M167.538,154.825a1.342,1.342,0,1,0-1.892-.151A1.342,1.342,0,0,0,167.538,154.825Z" fill="#ebc883"/>
      </g>
      <g id="Group_309" data-name="Group 309">
        <path id="Path_360" data-name="Path 360" d="M165.319,145.284a1.342,1.342,0,1,0-1.893-.152A1.342,1.342,0,0,0,165.319,145.284Z" fill="#ebc883"/>
      </g>
      <g id="Group_310" data-name="Group 310">
        <path id="Path_361" data-name="Path 361" d="M161.483,128.2a1.342,1.342,0,1,0,1.892.151A1.343,1.343,0,0,0,161.483,128.2Z" fill="#ebc883"/>
      </g>
      <g id="Group_311" data-name="Group 311">
        <path id="Path_362" data-name="Path 362" d="M161.724,118.609a1.342,1.342,0,1,0,1.892.152A1.343,1.343,0,0,0,161.724,118.609Z" fill="#ebc883"/>
      </g>
      <g id="Group_312" data-name="Group 312">
        <path id="Path_363" data-name="Path 363" d="M165.861,106.017a1.342,1.342,0,1,0-1.893-.152A1.343,1.343,0,0,0,165.861,106.017Z" fill="#ebc883"/>
      </g>
      <g id="Group_313" data-name="Group 313">
        <path id="Path_364" data-name="Path 364" d="M171.569,166.014a1.342,1.342,0,1,0,1.892.151A1.341,1.341,0,0,0,171.569,166.014Z" fill="#ebc883"/>
      </g>
      <g id="Group_314" data-name="Group 314">
        <path id="Path_365" data-name="Path 365" d="M178.349,184.183s7.744-3.864,6.4-5.447S178.349,184.183,178.349,184.183Z" fill="#ebc883"/>
      </g>
      <g id="Group_315" data-name="Group 315">
        <circle id="Ellipse_6" data-name="Ellipse 6" cx="1.342" cy="1.342" r="1.342" transform="matrix(0.75, -0.662, 0.662, 0.75, 189.177, 173.228)" fill="#ebc883"/>
      </g>
      <g id="Group_316" data-name="Group 316">
        <path id="Path_366" data-name="Path 366" d="M178.9,175.834a1.342,1.342,0,1,0-1.892-.151A1.342,1.342,0,0,0,178.9,175.834Z" fill="#ebc883"/>
      </g>
      <g id="Group_317" data-name="Group 317">
        <path id="Path_367" data-name="Path 367" d="M186.678,184.971a1.342,1.342,0,1,0,1.892.152A1.343,1.343,0,0,0,186.678,184.971Z" fill="#ebc883"/>
      </g>
      <g id="Group_318" data-name="Group 318">
        <path id="Path_368" data-name="Path 368" d="M163.09,162.852c3.48-.055,10.279-2.319,9.433-4.244S163.09,162.852,163.09,162.852Z" fill="#ebc883"/>
      </g>
      <g id="Group_319" data-name="Group 319">
        <path id="Path_369" data-name="Path 369" d="M166.664,136.357c.128-2.49-10.038.791-10.038.791C159.521,137.856,166.536,138.846,166.664,136.357Z" fill="#ebc883"/>
      </g>
      <g id="Group_320" data-name="Group 320">
        <path id="Path_370" data-name="Path 370" d="M166.931,112.5c.443-1.964-9.735-1.7-9.735-1.7C160.88,112.746,166.488,114.465,166.931,112.5Z" fill="#ebc883"/>
      </g>
      <g id="Group_321" data-name="Group 321">
        <path id="Path_371" data-name="Path 371" d="M165.843,85.966s7.412,6.426,8.453,4.129S165.843,85.966,165.843,85.966Z" fill="#ebc883"/>
      </g>
      <g id="Group_322" data-name="Group 322">
        <path id="Path_372" data-name="Path 372" d="M188.131,70.729c1.737-1.479-6.847-6.6-6.847-6.6C182.984,66.738,186.393,72.209,188.131,70.729Z" fill="#ebc883"/>
      </g>
      <g id="Group_323" data-name="Group 323">
        <path id="Path_373" data-name="Path 373" d="M189.306,113.721c-.457-4.988-.442-11.437-.442-11.437a14.794,14.794,0,0,0-8.369.781c-3.433,1.249-5.556.412-5.556.412a38.025,38.025,0,0,1,7.706,6.837A8.3,8.3,0,0,0,189.306,113.721Zm-2.067-5.708-.169,1.45-1.449-.169-1.144.907-.906-1.144-1.45-.169.168-1.449-.906-1.144,1.144-.906.168-1.45,1.45.168,1.144-.906.906,1.144,1.45.168-.169,1.45.907,1.144Z" fill="#ebc883"/>
      </g>
      <g id="Group_324" data-name="Group 324">
        <path id="Path_374" data-name="Path 374" d="M186.5,105.419l-.849-.1-.531-.67-.67.531-.849-.1-.1.849-.67.531.531.67-.1.849.849.1.531.67.67-.531.849.1.1-.849.67-.531-.531-.67Z" fill="#ebc883"/>
      </g>
      <g id="Group_325" data-name="Group 325">
        <path id="Path_375" data-name="Path 375" d="M187.8,126.642l-.189-.984.562-.829-.829-.562-.189-.984-.984.189-.829-.562-.562.829-.984.189.189.984-.562.829.829.562.189.984.984-.189.829.562.562-.829Z" fill="#ebc883"/>
      </g>
      <g id="Group_326" data-name="Group 326">
        <path id="Path_376" data-name="Path 376" d="M192.809,130.222c-1.465-4.7-3.048-11.554-3.048-11.554s-7.481.156-10.965,2.737a21.114,21.114,0,0,1-7.256,3.393,60.743,60.743,0,0,1,9.984,5.25C185.719,132.955,192.809,130.222,192.809,130.222Zm-9.328-1.521-.322-1.68-1.415-.959.96-1.415-.322-1.68,1.679-.321.96-1.415,1.415.96,1.679-.322.322,1.679,1.415.96-.96,1.415.322,1.679-1.679.322-.96,1.415-1.415-.96Z" fill="#ebc883"/>
      </g>
      <g id="Group_327" data-name="Group 327">
        <path id="Path_377" data-name="Path 377" d="M188.284,143.067l.934.362.4.916.916-.4.934.362.362-.934.916-.4-.4-.916.362-.934-.934-.362-.4-.916-.916.4-.934-.362-.362.934-.916.4.4.916Z" fill="#ebc883"/>
      </g>
      <g id="Group_328" data-name="Group 328">
        <path id="Path_378" data-name="Path 378" d="M181.784,141.067c-1.524,2.092-6.438,5.484-6.438,5.484,3.54-.5,5.873.684,11.25,1.261s11.387-3.88,11.387-3.88a55.474,55.474,0,0,1-3.6-8.569C189.45,136.487,183.308,138.975,181.784,141.067Zm6.427-1.158.618-1.6,1.594.618,1.564-.691.691,1.564,1.594.617-.617,1.6.691,1.564-1.564.69-.618,1.6-1.594-.618-1.564.691-.691-1.564-1.594-.617.617-1.594-.691-1.564Z" fill="#ebc883"/>
      </g>
      <g id="Group_329" data-name="Group 329">
        <path id="Path_379" data-name="Path 379" d="M188.738,157.926c-1.425,3.762-5.652,7.819-5.652,7.819a90.327,90.327,0,0,1,11.481-2c5.354-.482,11.9-6.277,11.9-6.277-2.829-3.012-6.794-9.686-6.794-9.686C193.918,150.966,190.162,154.164,188.738,157.926Zm5.768-3.018.373-1.851,1.851.374,1.573-1.045,1.045,1.572,1.851.374-.373,1.851,1.045,1.573L200.3,158.8l-.374,1.851-1.851-.373-1.573,1.045-1.045-1.573-1.851-.374.374-1.851-1.045-1.573Z" fill="#ebc883"/>
      </g>
      <g id="Group_330" data-name="Group 330">
        <path id="Path_380" data-name="Path 380" d="M195.177,158.333l1.085.219.612.922.922-.612,1.085.219.219-1.085.922-.612-.612-.922.219-1.085-1.085-.219-.612-.922-.922.612-1.085-.219-.219,1.085-.922.612.612.922Z" fill="#ebc883"/>
      </g>
      <g id="Group_331" data-name="Group 331">
        <path id="Path_381" data-name="Path 381" d="M325.148,173.531a3.9,3.9,0,0,1,3.834,2.949,65.524,65.524,0,0,0,4.368-9.156A27.579,27.579,0,0,1,325.148,173.531Z" fill="#ebc883"/>
      </g>
      <g id="Group_332" data-name="Group 332">
        <path id="Path_382" data-name="Path 382" d="M276.241,192.087c3.44,1.037,3.949,3.6,3.949,3.6a7.048,7.048,0,0,1,1.86-3.612c1.49-1.357,1.955-3.605,1.651-3.962,0,0-8.444,1.108-14.033-.3A18.38,18.38,0,0,0,276.241,192.087Z" fill="#ebc883"/>
      </g>
      <g id="Group_333" data-name="Group 333">
        <path id="Path_383" data-name="Path 383" d="M207.82,187.943a1.342,1.342,0,1,0-1.892-.152A1.342,1.342,0,0,0,207.82,187.943Z" fill="#ebc883"/>
      </g>
      <g id="Group_334" data-name="Group 334">
        <path id="Path_384" data-name="Path 384" d="M226.481,196.711a1.342,1.342,0,1,0-1.892-.151A1.343,1.343,0,0,0,226.481,196.711Z" fill="#ebc883"/>
      </g>
      <g id="Group_335" data-name="Group 335">
        <path id="Path_385" data-name="Path 385" d="M245.94,197.967a1.342,1.342,0,1,0,1.892.151A1.341,1.341,0,0,0,245.94,197.967Z" fill="#ebc883"/>
      </g>
      <g id="Group_336" data-name="Group 336">
        <path id="Path_386" data-name="Path 386" d="M267.273,194.344a1.342,1.342,0,1,0,1.892.152A1.342,1.342,0,0,0,267.273,194.344Z" fill="#ebc883"/>
      </g>
      <g id="Group_337" data-name="Group 337">
        <path id="Path_387" data-name="Path 387" d="M277.554,202.275a1.342,1.342,0,1,0,1.893.152A1.342,1.342,0,0,0,277.554,202.275Z" fill="#ebc883"/>
      </g>
      <g id="Group_338" data-name="Group 338">
        <path id="Path_388" data-name="Path 388" d="M288.505,198.238a1.342,1.342,0,1,0-.152,1.892A1.342,1.342,0,0,0,288.505,198.238Z" fill="#ebc883"/>
      </g>
      <g id="Group_339" data-name="Group 339">
        <path id="Path_389" data-name="Path 389" d="M298.52,189.708a1.342,1.342,0,1,0,1.892.152A1.343,1.343,0,0,0,298.52,189.708Z" fill="#ebc883"/>
      </g>
      <g id="Group_340" data-name="Group 340">
        <path id="Path_390" data-name="Path 390" d="M263.034,207.479a1.342,1.342,0,1,0,1.893.151A1.342,1.342,0,0,0,263.034,207.479Z" fill="#ebc883"/>
      </g>
      <g id="Group_341" data-name="Group 341">
        <path id="Path_391" data-name="Path 391" d="M207.353,201.571a1.342,1.342,0,1,0-1.893-.151A1.342,1.342,0,0,0,207.353,201.571Z" fill="#ebc883"/>
      </g>
      <g id="Group_342" data-name="Group 342">
        <path id="Path_392" data-name="Path 392" d="M216.419,205.281a1.342,1.342,0,1,0-1.892-.152A1.343,1.343,0,0,0,216.419,205.281Z" fill="#ebc883"/>
      </g>
      <g id="Group_343" data-name="Group 343">
        <path id="Path_393" data-name="Path 393" d="M230.931,209.742a1.342,1.342,0,1,0-1.893-.151A1.342,1.342,0,0,0,230.931,209.742Z" fill="#ebc883"/>
      </g>
      <g id="Group_344" data-name="Group 344">
        <path id="Path_394" data-name="Path 394" d="M238.7,208.987a1.342,1.342,0,1,0,1.893.152A1.343,1.343,0,0,0,238.7,208.987Z" fill="#ebc883"/>
      </g>
      <g id="Group_345" data-name="Group 345">
        <path id="Path_395" data-name="Path 395" d="M253.532,208.951a1.342,1.342,0,1,0,1.892.151A1.341,1.341,0,0,0,253.532,208.951Z" fill="#ebc883"/>
      </g>
      <g id="Group_346" data-name="Group 346">
        <path id="Path_396" data-name="Path 396" d="M193.467,191.724a1.342,1.342,0,1,0,1.892.152A1.343,1.343,0,0,0,193.467,191.724Z" fill="#ebc883"/>
      </g>
      <g id="Group_347" data-name="Group 347">
        <path id="Path_397" data-name="Path 397" d="M202.671,194c-1.766-1.141-5.084,5.211-5.691,8.638C196.98,202.642,204.436,195.145,202.671,194Z" fill="#ebc883"/>
      </g>
      <g id="Group_348" data-name="Group 348">
        <path id="Path_398" data-name="Path 398" d="M223.706,203.33c-2.478-.27-2.617,6.813-2.379,9.784C221.327,213.114,226.184,203.6,223.706,203.33Z" fill="#ebc883"/>
      </g>
      <g id="Group_349" data-name="Group 349">
        <path id="Path_399" data-name="Path 399" d="M247.3,206.862c-2.009.125-1.2,5.935.13,9.882C247.43,216.744,249.31,206.737,247.3,206.862Z" fill="#ebc883"/>
      </g>
      <g id="Group_350" data-name="Group 350">
        <path id="Path_400" data-name="Path 400" d="M270.593,203.157c-2.433.662,2.731,9,2.731,9S273.027,202.494,270.593,203.157Z" fill="#ebc883"/>
      </g>
      <g id="Group_351" data-name="Group 351">
        <path id="Path_401" data-name="Path 401" d="M291.913,192.58c-1.737,1.48,3.122,5.717,5.426,7.81C297.339,200.39,293.65,191.1,291.913,192.58Z" fill="#ebc883"/>
      </g>
      <g id="Group_352" data-name="Group 352">
        <path id="Path_402" data-name="Path 402" d="M257.483,200.393s-.488-2.229,1.291-5.42a14.789,14.789,0,0,0,2.1-8.138s-6.369-1.011-11.221-2.257a8.3,8.3,0,0,0,2.3,7.118A38.013,38.013,0,0,1,257.483,200.393Zm-4.043-11.472.065-1.458,1.458.065,1.076-.986.985,1.077,1.458.065-.064,1.458.985,1.076-1.077.986-.064,1.458L256.8,192.6l-1.077.985-.985-1.077-1.458-.064.065-1.458-.986-1.077Z" fill="#ebc883"/>
      </g>
      <g id="Group_353" data-name="Group 353">
        <path id="Path_403" data-name="Path 403" d="M254.36,191.456l.854.038.577.631.631-.577.854.038.038-.854.631-.577-.577-.631.038-.854-.854-.038-.577-.631-.631.577-.854-.038-.038.854-.631.577.577.631Z" fill="#ebc883"/>
      </g>
      <g id="Group_354" data-name="Group 354">
        <path id="Path_404" data-name="Path 404" d="M235.49,187.223l.941.343.423.908.908-.423.941.343.343-.941.908-.423-.423-.908.343-.941-.941-.343-.423-.908-.908.423-.941-.343-.343.941-.908.423.423.908Z" fill="#ebc883"/>
      </g>
      <g id="Group_355" data-name="Group 355">
        <path id="Path_405" data-name="Path 405" d="M235.893,200.355a21.108,21.108,0,0,1,4.5-6.624c3.1-3.028,4.447-10.389,4.447-10.389s-6.511-2.654-10.922-4.848c0,0-3.826,6.565-1.624,11.169A60.761,60.761,0,0,1,235.893,200.355Zm-.54-16.288.585-1.607,1.606.585,1.55-.722.722,1.549,1.607.585-.585,1.607.723,1.549-1.55.723-.585,1.606-1.607-.585-1.549.723-.723-1.55-1.606-.585.585-1.606-.723-1.55Z" fill="#ebc883"/>
      </g>
      <g id="Group_356" data-name="Group 356">
        <path id="Path_406" data-name="Path 406" d="M220.313,179.937l.208.98.98-.208.84.545.546-.84.98-.208-.208-.98.545-.84-.84-.545-.208-.98-.98.208-.84-.545-.546.84-.98.208.208.98-.546.84Z" fill="#ebc883"/>
      </g>
      <g id="Group_357" data-name="Group 357">
        <path id="Path_407" data-name="Path 407" d="M215.024,193.136s4.13-4.311,6.438-5.483,5.741-6.84,7.636-11.53a55.431,55.431,0,0,1-7.887-4.919s-5.357,5.223-5.643,10.624S216.083,189.722,215.024,193.136Zm3.352-16.495,1.672-.356.931-1.434,1.434.931,1.673-.356.356,1.673,1.434.93-.931,1.435.355,1.672-1.672.356-.931,1.434-1.434-.931-1.672.356-.356-1.673-1.434-.931.931-1.434Z" fill="#ebc883"/>
      </g>
      <g id="Group_358" data-name="Group 358">
        <path id="Path_408" data-name="Path 408" d="M197.3,182.44s4.679-3.527,8.619-4.335,7.7-4.007,11.753-9.181c0,0-5.958-4.976-8.481-8.249,0,0-6.763,5.539-8.091,10.748A90.135,90.135,0,0,1,197.3,182.44Zm7.708-15.813,1.887-.074,1.282-1.387,1.387,1.282,1.887-.074.074,1.887,1.386,1.282-1.282,1.387.074,1.887-1.887.074-1.282,1.386-1.386-1.282-1.887.074-.074-1.887L203.8,169.9l1.282-1.386Z" fill="#ebc883"/>
      </g>
      <g id="Group_359" data-name="Group 359">
        <path id="Path_409" data-name="Path 409" d="M206.5,170.577l.043,1.106,1.106-.043.812.751.751-.812,1.105-.043-.043-1.105.751-.812-.812-.751-.043-1.106-1.106.043-.812-.751-.751.812-1.106.043.043,1.106-.751.812Z" fill="#ebc883"/>
      </g>
    </g>
  </g>
</svg>
